<svg xmlns="http://www.w3.org/2000/svg" viewBox="0 0 50 62.5"><path d="M43 9.22H5.95c-1.86 0-3.37 1.52-3.37 3.38v22.04c0 1.85 1.5 3.37 3.37 3.37H43c1.86 0 3.38-1.5 3.38-3.36V12.6c0-1.86-1.52-3.38-3.37-3.38zM5.95 11.47H43c.63 0 1.13.5 1.13 1.13v3.78H4.83V12.6c0-.62.5-1.13 1.1-1.13zM43 35.77H5.95c-.62 0-1.12-.5-1.12-1.14v-16h39.3v16c0 .63-.5 1.13-1.1 1.13z"/><circle cx="7.91" cy="13.99" r="1.2"/><circle cx="11.28" cy="13.99" r="1.2"/><circle cx="14.65" cy="13.99" r="1.2"/><path d="M24.53 21.12c-1.8 0-3.27 1.4-3.27 3.1v5.5c0 1.7 1.47 3.1 3.27 3.1s3.28-1.4 3.28-3.1v-5.5c0-1.7-1.46-3.1-3.27-3.1zm1.04 8.6c0 .46-.48.85-1.04.85-.55 0-1.02-.4-1.02-.84v-5.5c0-.48.47-.86 1.03-.86.57 0 1.04.38 1.04.85v5.5zM19.33 26.08H16.8l1.45-3.4c.25-.57-.02-1.23-.6-1.47-.55-.23-1.22.03-1.46.6l-2.12 4.96c-.02.04 0 .08-.03.12-.07.25-.07.52.03.75.02.06.07.12.1.17l.13.2c.1.08.23.16.35.22h.02c.14.07.3.1.44.1h3.1v3.47c0 .6.5 1.1 1.13 1.1.6 0 1.12-.5 1.12-1.1v-4.6c0-.62-.5-1.12-1.12-1.12zM33.83 26.08h-2.5l1.43-3.4c.24-.57-.02-1.23-.6-1.47-.56-.23-1.22.03-1.47.6l-2.1 4.96h-.02c0 .04 0 .08-.02.12-.07.25-.07.52.02.75.03.06.08.12.12.17l.12.2c.1.08.2.16.34.22h.02c.14.07.28.1.44.1h3.1v3.47c0 .6.5 1.1 1.1 1.1.63 0 1.13-.5 1.13-1.1v-4.6c0-.62-.5-1.12-1.12-1.12z"/></svg>
